<mxfile host="Electron" modified="2023-10-29T07:53:24.346Z" agent="Mozilla/5.0 (Macintosh; Intel Mac OS X 10_15_7) AppleWebKit/537.36 (KHTML, like Gecko) draw.io/22.0.3 Chrome/114.0.5735.289 Electron/25.8.4 Safari/537.36" etag="_LV0zh747DtO5POKLHfQ" version="22.0.3" type="device">
  <diagram name="第 1 页" id="WxO3pIIVluApQEACgnS8">
    <mxGraphModel dx="2074" dy="1129" grid="1" gridSize="10" guides="1" tooltips="1" connect="1" arrows="1" fold="1" page="1" pageScale="1" pageWidth="827" pageHeight="1169" math="0" shadow="0">
      <root>
        <mxCell id="0" />
        <mxCell id="1" parent="0" />
        <mxCell id="y8bvo68EP2A5aQVyU9ZU-3" style="edgeStyle=orthogonalEdgeStyle;rounded=0;orthogonalLoop=1;jettySize=auto;html=1;entryX=0.5;entryY=0;entryDx=0;entryDy=0;" edge="1" parent="1" source="y8bvo68EP2A5aQVyU9ZU-1" target="y8bvo68EP2A5aQVyU9ZU-2">
          <mxGeometry relative="1" as="geometry" />
        </mxCell>
        <mxCell id="y8bvo68EP2A5aQVyU9ZU-1" value="main" style="rounded=0;whiteSpace=wrap;html=1;" vertex="1" parent="1">
          <mxGeometry x="330" y="80" width="120" height="60" as="geometry" />
        </mxCell>
        <mxCell id="y8bvo68EP2A5aQVyU9ZU-20" style="edgeStyle=orthogonalEdgeStyle;rounded=0;orthogonalLoop=1;jettySize=auto;html=1;" edge="1" parent="1" source="y8bvo68EP2A5aQVyU9ZU-2" target="y8bvo68EP2A5aQVyU9ZU-10">
          <mxGeometry relative="1" as="geometry" />
        </mxCell>
        <mxCell id="y8bvo68EP2A5aQVyU9ZU-2" value="newCtrl" style="rounded=0;whiteSpace=wrap;html=1;" vertex="1" parent="1">
          <mxGeometry x="330" y="210" width="120" height="60" as="geometry" />
        </mxCell>
        <mxCell id="y8bvo68EP2A5aQVyU9ZU-7" style="edgeStyle=orthogonalEdgeStyle;rounded=0;orthogonalLoop=1;jettySize=auto;html=1;entryX=0.5;entryY=0;entryDx=0;entryDy=0;" edge="1" parent="1" source="y8bvo68EP2A5aQVyU9ZU-4" target="y8bvo68EP2A5aQVyU9ZU-6">
          <mxGeometry relative="1" as="geometry" />
        </mxCell>
        <mxCell id="y8bvo68EP2A5aQVyU9ZU-22" style="edgeStyle=orthogonalEdgeStyle;rounded=0;orthogonalLoop=1;jettySize=auto;html=1;entryX=0.5;entryY=1;entryDx=0;entryDy=0;" edge="1" parent="1" source="y8bvo68EP2A5aQVyU9ZU-4" target="y8bvo68EP2A5aQVyU9ZU-11">
          <mxGeometry relative="1" as="geometry" />
        </mxCell>
        <mxCell id="y8bvo68EP2A5aQVyU9ZU-4" value="Router(keepCtrl)" style="rounded=0;whiteSpace=wrap;html=1;" vertex="1" parent="1">
          <mxGeometry x="323" y="340" width="120" height="60" as="geometry" />
        </mxCell>
        <mxCell id="y8bvo68EP2A5aQVyU9ZU-5" style="edgeStyle=orthogonalEdgeStyle;rounded=0;orthogonalLoop=1;jettySize=auto;html=1;entryX=0.558;entryY=-0.067;entryDx=0;entryDy=0;entryPerimeter=0;" edge="1" parent="1" source="y8bvo68EP2A5aQVyU9ZU-2" target="y8bvo68EP2A5aQVyU9ZU-4">
          <mxGeometry relative="1" as="geometry" />
        </mxCell>
        <mxCell id="y8bvo68EP2A5aQVyU9ZU-6" value="hertz.Spin()" style="rounded=0;whiteSpace=wrap;html=1;" vertex="1" parent="1">
          <mxGeometry x="323" y="460" width="120" height="60" as="geometry" />
        </mxCell>
        <mxCell id="y8bvo68EP2A5aQVyU9ZU-9" style="edgeStyle=orthogonalEdgeStyle;rounded=0;orthogonalLoop=1;jettySize=auto;html=1;" edge="1" parent="1" source="y8bvo68EP2A5aQVyU9ZU-8">
          <mxGeometry relative="1" as="geometry">
            <mxPoint x="320" y="370" as="targetPoint" />
          </mxGeometry>
        </mxCell>
        <mxCell id="y8bvo68EP2A5aQVyU9ZU-8" value="Actor" style="shape=umlActor;verticalLabelPosition=bottom;verticalAlign=top;html=1;outlineConnect=0;" vertex="1" parent="1">
          <mxGeometry x="162" y="340" width="30" height="60" as="geometry" />
        </mxCell>
        <mxCell id="y8bvo68EP2A5aQVyU9ZU-21" style="edgeStyle=orthogonalEdgeStyle;rounded=0;orthogonalLoop=1;jettySize=auto;html=1;exitX=1;exitY=0.5;exitDx=0;exitDy=0;entryX=0;entryY=0.5;entryDx=0;entryDy=0;" edge="1" parent="1" source="y8bvo68EP2A5aQVyU9ZU-10" target="y8bvo68EP2A5aQVyU9ZU-11">
          <mxGeometry relative="1" as="geometry" />
        </mxCell>
        <mxCell id="y8bvo68EP2A5aQVyU9ZU-25" style="edgeStyle=orthogonalEdgeStyle;rounded=0;orthogonalLoop=1;jettySize=auto;html=1;exitX=0.5;exitY=0;exitDx=0;exitDy=0;entryX=0.5;entryY=1;entryDx=0;entryDy=0;" edge="1" parent="1" source="y8bvo68EP2A5aQVyU9ZU-10" target="y8bvo68EP2A5aQVyU9ZU-23">
          <mxGeometry relative="1" as="geometry" />
        </mxCell>
        <mxCell id="y8bvo68EP2A5aQVyU9ZU-10" value="configer" style="rounded=0;whiteSpace=wrap;html=1;" vertex="1" parent="1">
          <mxGeometry x="500" y="210" width="120" height="60" as="geometry" />
        </mxCell>
        <mxCell id="y8bvo68EP2A5aQVyU9ZU-26" style="edgeStyle=orthogonalEdgeStyle;rounded=0;orthogonalLoop=1;jettySize=auto;html=1;entryX=0.5;entryY=1;entryDx=0;entryDy=0;" edge="1" parent="1" source="y8bvo68EP2A5aQVyU9ZU-11" target="y8bvo68EP2A5aQVyU9ZU-24">
          <mxGeometry relative="1" as="geometry" />
        </mxCell>
        <mxCell id="y8bvo68EP2A5aQVyU9ZU-11" value="daler" style="rounded=0;whiteSpace=wrap;html=1;" vertex="1" parent="1">
          <mxGeometry x="670" y="210" width="120" height="60" as="geometry" />
        </mxCell>
        <mxCell id="y8bvo68EP2A5aQVyU9ZU-23" value="config" style="rounded=0;whiteSpace=wrap;html=1;" vertex="1" parent="1">
          <mxGeometry x="500" y="110" width="120" height="60" as="geometry" />
        </mxCell>
        <mxCell id="y8bvo68EP2A5aQVyU9ZU-24" value="Mongo Redis" style="rounded=0;whiteSpace=wrap;html=1;" vertex="1" parent="1">
          <mxGeometry x="670" y="110" width="120" height="60" as="geometry" />
        </mxCell>
      </root>
    </mxGraphModel>
  </diagram>
</mxfile>
